<mxfile host="app.diagrams.net" agent="Mozilla/5.0 (Macintosh; Intel Mac OS X 10_15_7) AppleWebKit/537.36 (KHTML, like Gecko) Chrome/127.0.0.0 Safari/537.36" version="24.7.8">
  <diagram name="PÃ¡gina-1" id="N9dTKRUiRMvo1C_USMV6">
    <mxGraphModel dx="1314" dy="811" grid="1" gridSize="10" guides="1" tooltips="1" connect="1" arrows="1" fold="1" page="1" pageScale="1" pageWidth="827" pageHeight="1169" math="0" shadow="0">
      <root>
        <mxCell id="0" />
        <mxCell id="1" parent="0" />
        <mxCell id="aNwB7MC-OGxi8TxOSU20-1" value="PACIENTE" style="shape=table;startSize=25;container=1;collapsible=0;childLayout=tableLayout;fixedRows=1;rowLines=1;fontStyle=1;align=center;resizeLast=1;labelBackgroundColor=none;fillColor=#A8DADC;strokeColor=#457B9D;fontColor=#1D3557;" vertex="1" parent="1">
          <mxGeometry x="28" y="31" width="100" height="46" as="geometry" />
        </mxCell>
        <mxCell id="aNwB7MC-OGxi8TxOSU20-2" style="shape=tableRow;horizontal=0;startSize=0;swimlaneHead=0;swimlaneBody=0;fillColor=none;collapsible=0;dropTarget=0;points=[[0,0.5],[1,0.5]];portConstraint=eastwest;top=0;left=0;right=0;bottom=0;labelBackgroundColor=none;strokeColor=#457B9D;fontColor=#1D3557;" vertex="1" parent="aNwB7MC-OGxi8TxOSU20-1">
          <mxGeometry y="25" width="100" height="21" as="geometry" />
        </mxCell>
        <mxCell id="aNwB7MC-OGxi8TxOSU20-3" value="string" style="shape=partialRectangle;connectable=0;fillColor=none;top=0;left=0;bottom=0;right=0;align=left;spacingLeft=2;overflow=hidden;fontSize=11;labelBackgroundColor=none;strokeColor=#457B9D;fontColor=#1D3557;" vertex="1" parent="aNwB7MC-OGxi8TxOSU20-2">
          <mxGeometry width="36" height="21" as="geometry">
            <mxRectangle width="36" height="21" as="alternateBounds" />
          </mxGeometry>
        </mxCell>
        <mxCell id="aNwB7MC-OGxi8TxOSU20-4" value="rut" style="shape=partialRectangle;connectable=0;fillColor=none;top=0;left=0;bottom=0;right=0;align=left;spacingLeft=2;overflow=hidden;fontSize=11;labelBackgroundColor=none;strokeColor=#457B9D;fontColor=#1D3557;" vertex="1" parent="aNwB7MC-OGxi8TxOSU20-2">
          <mxGeometry x="36" width="64" height="21" as="geometry">
            <mxRectangle width="64" height="21" as="alternateBounds" />
          </mxGeometry>
        </mxCell>
        <mxCell id="aNwB7MC-OGxi8TxOSU20-5" value="ADMINISTRADOR" style="shape=table;startSize=25;container=1;collapsible=0;childLayout=tableLayout;fixedRows=1;rowLines=1;fontStyle=1;align=center;resizeLast=1;labelBackgroundColor=none;fillColor=#A8DADC;strokeColor=#457B9D;fontColor=#1D3557;" vertex="1" parent="1">
          <mxGeometry x="237" y="20" width="137" height="69" as="geometry" />
        </mxCell>
        <mxCell id="aNwB7MC-OGxi8TxOSU20-6" style="shape=tableRow;horizontal=0;startSize=0;swimlaneHead=0;swimlaneBody=0;fillColor=none;collapsible=0;dropTarget=0;points=[[0,0.5],[1,0.5]];portConstraint=eastwest;top=0;left=0;right=0;bottom=0;labelBackgroundColor=none;strokeColor=#457B9D;fontColor=#1D3557;" vertex="1" parent="aNwB7MC-OGxi8TxOSU20-5">
          <mxGeometry y="25" width="137" height="22" as="geometry" />
        </mxCell>
        <mxCell id="aNwB7MC-OGxi8TxOSU20-7" value="string" style="shape=partialRectangle;connectable=0;fillColor=none;top=0;left=0;bottom=0;right=0;align=left;spacingLeft=2;overflow=hidden;fontSize=11;labelBackgroundColor=none;strokeColor=#457B9D;fontColor=#1D3557;" vertex="1" parent="aNwB7MC-OGxi8TxOSU20-6">
          <mxGeometry width="36" height="22" as="geometry">
            <mxRectangle width="36" height="22" as="alternateBounds" />
          </mxGeometry>
        </mxCell>
        <mxCell id="aNwB7MC-OGxi8TxOSU20-8" value="nombre" style="shape=partialRectangle;connectable=0;fillColor=none;top=0;left=0;bottom=0;right=0;align=left;spacingLeft=2;overflow=hidden;fontSize=11;labelBackgroundColor=none;strokeColor=#457B9D;fontColor=#1D3557;" vertex="1" parent="aNwB7MC-OGxi8TxOSU20-6">
          <mxGeometry x="36" width="101" height="22" as="geometry">
            <mxRectangle width="101" height="22" as="alternateBounds" />
          </mxGeometry>
        </mxCell>
        <mxCell id="aNwB7MC-OGxi8TxOSU20-9" style="shape=tableRow;horizontal=0;startSize=0;swimlaneHead=0;swimlaneBody=0;fillColor=none;collapsible=0;dropTarget=0;points=[[0,0.5],[1,0.5]];portConstraint=eastwest;top=0;left=0;right=0;bottom=0;labelBackgroundColor=none;strokeColor=#457B9D;fontColor=#1D3557;" vertex="1" parent="aNwB7MC-OGxi8TxOSU20-5">
          <mxGeometry y="47" width="137" height="22" as="geometry" />
        </mxCell>
        <mxCell id="aNwB7MC-OGxi8TxOSU20-10" value="string" style="shape=partialRectangle;connectable=0;fillColor=none;top=0;left=0;bottom=0;right=0;align=left;spacingLeft=2;overflow=hidden;fontSize=11;labelBackgroundColor=none;strokeColor=#457B9D;fontColor=#1D3557;" vertex="1" parent="aNwB7MC-OGxi8TxOSU20-9">
          <mxGeometry width="36" height="22" as="geometry">
            <mxRectangle width="36" height="22" as="alternateBounds" />
          </mxGeometry>
        </mxCell>
        <mxCell id="aNwB7MC-OGxi8TxOSU20-11" value="rut_consultorio" style="shape=partialRectangle;connectable=0;fillColor=none;top=0;left=0;bottom=0;right=0;align=left;spacingLeft=2;overflow=hidden;fontSize=11;labelBackgroundColor=none;strokeColor=#457B9D;fontColor=#1D3557;" vertex="1" parent="aNwB7MC-OGxi8TxOSU20-9">
          <mxGeometry x="36" width="101" height="22" as="geometry">
            <mxRectangle width="101" height="22" as="alternateBounds" />
          </mxGeometry>
        </mxCell>
        <mxCell id="aNwB7MC-OGxi8TxOSU20-12" value="PROFESIONAL" style="shape=table;startSize=25;container=1;collapsible=0;childLayout=tableLayout;fixedRows=1;rowLines=1;fontStyle=1;align=center;resizeLast=1;labelBackgroundColor=none;fillColor=#A8DADC;strokeColor=#457B9D;fontColor=#1D3557;" vertex="1" parent="1">
          <mxGeometry x="360" y="609" width="137" height="69" as="geometry" />
        </mxCell>
        <mxCell id="aNwB7MC-OGxi8TxOSU20-13" style="shape=tableRow;horizontal=0;startSize=0;swimlaneHead=0;swimlaneBody=0;fillColor=none;collapsible=0;dropTarget=0;points=[[0,0.5],[1,0.5]];portConstraint=eastwest;top=0;left=0;right=0;bottom=0;labelBackgroundColor=none;strokeColor=#457B9D;fontColor=#1D3557;" vertex="1" parent="aNwB7MC-OGxi8TxOSU20-12">
          <mxGeometry y="25" width="137" height="22" as="geometry" />
        </mxCell>
        <mxCell id="aNwB7MC-OGxi8TxOSU20-14" value="string" style="shape=partialRectangle;connectable=0;fillColor=none;top=0;left=0;bottom=0;right=0;align=left;spacingLeft=2;overflow=hidden;fontSize=11;labelBackgroundColor=none;strokeColor=#457B9D;fontColor=#1D3557;" vertex="1" parent="aNwB7MC-OGxi8TxOSU20-13">
          <mxGeometry width="36" height="22" as="geometry">
            <mxRectangle width="36" height="22" as="alternateBounds" />
          </mxGeometry>
        </mxCell>
        <mxCell id="aNwB7MC-OGxi8TxOSU20-15" value="rut_profesional" style="shape=partialRectangle;connectable=0;fillColor=none;top=0;left=0;bottom=0;right=0;align=left;spacingLeft=2;overflow=hidden;fontSize=11;labelBackgroundColor=none;strokeColor=#457B9D;fontColor=#1D3557;" vertex="1" parent="aNwB7MC-OGxi8TxOSU20-13">
          <mxGeometry x="36" width="101" height="22" as="geometry">
            <mxRectangle width="101" height="22" as="alternateBounds" />
          </mxGeometry>
        </mxCell>
        <mxCell id="aNwB7MC-OGxi8TxOSU20-16" style="shape=tableRow;horizontal=0;startSize=0;swimlaneHead=0;swimlaneBody=0;fillColor=none;collapsible=0;dropTarget=0;points=[[0,0.5],[1,0.5]];portConstraint=eastwest;top=0;left=0;right=0;bottom=0;labelBackgroundColor=none;strokeColor=#457B9D;fontColor=#1D3557;" vertex="1" parent="aNwB7MC-OGxi8TxOSU20-12">
          <mxGeometry y="47" width="137" height="22" as="geometry" />
        </mxCell>
        <mxCell id="aNwB7MC-OGxi8TxOSU20-17" value="string" style="shape=partialRectangle;connectable=0;fillColor=none;top=0;left=0;bottom=0;right=0;align=left;spacingLeft=2;overflow=hidden;fontSize=11;labelBackgroundColor=none;strokeColor=#457B9D;fontColor=#1D3557;" vertex="1" parent="aNwB7MC-OGxi8TxOSU20-16">
          <mxGeometry width="36" height="22" as="geometry">
            <mxRectangle width="36" height="22" as="alternateBounds" />
          </mxGeometry>
        </mxCell>
        <mxCell id="aNwB7MC-OGxi8TxOSU20-18" value="area" style="shape=partialRectangle;connectable=0;fillColor=none;top=0;left=0;bottom=0;right=0;align=left;spacingLeft=2;overflow=hidden;fontSize=11;labelBackgroundColor=none;strokeColor=#457B9D;fontColor=#1D3557;" vertex="1" parent="aNwB7MC-OGxi8TxOSU20-16">
          <mxGeometry x="36" width="101" height="22" as="geometry">
            <mxRectangle width="101" height="22" as="alternateBounds" />
          </mxGeometry>
        </mxCell>
        <mxCell id="aNwB7MC-OGxi8TxOSU20-19" value="USUARIO" style="shape=table;startSize=25;container=1;collapsible=0;childLayout=tableLayout;fixedRows=1;rowLines=1;fontStyle=1;align=center;resizeLast=1;labelBackgroundColor=none;fillColor=#A8DADC;strokeColor=#457B9D;fontColor=#1D3557;" vertex="1" parent="1">
          <mxGeometry x="20" y="276" width="117" height="113" as="geometry" />
        </mxCell>
        <mxCell id="aNwB7MC-OGxi8TxOSU20-20" style="shape=tableRow;horizontal=0;startSize=0;swimlaneHead=0;swimlaneBody=0;fillColor=none;collapsible=0;dropTarget=0;points=[[0,0.5],[1,0.5]];portConstraint=eastwest;top=0;left=0;right=0;bottom=0;labelBackgroundColor=none;strokeColor=#457B9D;fontColor=#1D3557;" vertex="1" parent="aNwB7MC-OGxi8TxOSU20-19">
          <mxGeometry y="25" width="117" height="22" as="geometry" />
        </mxCell>
        <mxCell id="aNwB7MC-OGxi8TxOSU20-21" value="string" style="shape=partialRectangle;connectable=0;fillColor=none;top=0;left=0;bottom=0;right=0;align=left;spacingLeft=2;overflow=hidden;fontSize=11;labelBackgroundColor=none;strokeColor=#457B9D;fontColor=#1D3557;" vertex="1" parent="aNwB7MC-OGxi8TxOSU20-20">
          <mxGeometry width="36" height="22" as="geometry">
            <mxRectangle width="36" height="22" as="alternateBounds" />
          </mxGeometry>
        </mxCell>
        <mxCell id="aNwB7MC-OGxi8TxOSU20-22" value="rut" style="shape=partialRectangle;connectable=0;fillColor=none;top=0;left=0;bottom=0;right=0;align=left;spacingLeft=2;overflow=hidden;fontSize=11;labelBackgroundColor=none;strokeColor=#457B9D;fontColor=#1D3557;" vertex="1" parent="aNwB7MC-OGxi8TxOSU20-20">
          <mxGeometry x="36" width="81" height="22" as="geometry">
            <mxRectangle width="81" height="22" as="alternateBounds" />
          </mxGeometry>
        </mxCell>
        <mxCell id="aNwB7MC-OGxi8TxOSU20-23" style="shape=tableRow;horizontal=0;startSize=0;swimlaneHead=0;swimlaneBody=0;fillColor=none;collapsible=0;dropTarget=0;points=[[0,0.5],[1,0.5]];portConstraint=eastwest;top=0;left=0;right=0;bottom=0;labelBackgroundColor=none;strokeColor=#457B9D;fontColor=#1D3557;" vertex="1" parent="aNwB7MC-OGxi8TxOSU20-19">
          <mxGeometry y="47" width="117" height="22" as="geometry" />
        </mxCell>
        <mxCell id="aNwB7MC-OGxi8TxOSU20-24" value="string" style="shape=partialRectangle;connectable=0;fillColor=none;top=0;left=0;bottom=0;right=0;align=left;spacingLeft=2;overflow=hidden;fontSize=11;labelBackgroundColor=none;strokeColor=#457B9D;fontColor=#1D3557;" vertex="1" parent="aNwB7MC-OGxi8TxOSU20-23">
          <mxGeometry width="36" height="22" as="geometry">
            <mxRectangle width="36" height="22" as="alternateBounds" />
          </mxGeometry>
        </mxCell>
        <mxCell id="aNwB7MC-OGxi8TxOSU20-25" value="correo" style="shape=partialRectangle;connectable=0;fillColor=none;top=0;left=0;bottom=0;right=0;align=left;spacingLeft=2;overflow=hidden;fontSize=11;labelBackgroundColor=none;strokeColor=#457B9D;fontColor=#1D3557;" vertex="1" parent="aNwB7MC-OGxi8TxOSU20-23">
          <mxGeometry x="36" width="81" height="22" as="geometry">
            <mxRectangle width="81" height="22" as="alternateBounds" />
          </mxGeometry>
        </mxCell>
        <mxCell id="aNwB7MC-OGxi8TxOSU20-26" style="shape=tableRow;horizontal=0;startSize=0;swimlaneHead=0;swimlaneBody=0;fillColor=none;collapsible=0;dropTarget=0;points=[[0,0.5],[1,0.5]];portConstraint=eastwest;top=0;left=0;right=0;bottom=0;labelBackgroundColor=none;strokeColor=#457B9D;fontColor=#1D3557;" vertex="1" parent="aNwB7MC-OGxi8TxOSU20-19">
          <mxGeometry y="69" width="117" height="22" as="geometry" />
        </mxCell>
        <mxCell id="aNwB7MC-OGxi8TxOSU20-27" value="string" style="shape=partialRectangle;connectable=0;fillColor=none;top=0;left=0;bottom=0;right=0;align=left;spacingLeft=2;overflow=hidden;fontSize=11;labelBackgroundColor=none;strokeColor=#457B9D;fontColor=#1D3557;" vertex="1" parent="aNwB7MC-OGxi8TxOSU20-26">
          <mxGeometry width="36" height="22" as="geometry">
            <mxRectangle width="36" height="22" as="alternateBounds" />
          </mxGeometry>
        </mxCell>
        <mxCell id="aNwB7MC-OGxi8TxOSU20-28" value="n_telefono" style="shape=partialRectangle;connectable=0;fillColor=none;top=0;left=0;bottom=0;right=0;align=left;spacingLeft=2;overflow=hidden;fontSize=11;labelBackgroundColor=none;strokeColor=#457B9D;fontColor=#1D3557;" vertex="1" parent="aNwB7MC-OGxi8TxOSU20-26">
          <mxGeometry x="36" width="81" height="22" as="geometry">
            <mxRectangle width="81" height="22" as="alternateBounds" />
          </mxGeometry>
        </mxCell>
        <mxCell id="aNwB7MC-OGxi8TxOSU20-29" style="shape=tableRow;horizontal=0;startSize=0;swimlaneHead=0;swimlaneBody=0;fillColor=none;collapsible=0;dropTarget=0;points=[[0,0.5],[1,0.5]];portConstraint=eastwest;top=0;left=0;right=0;bottom=0;labelBackgroundColor=none;strokeColor=#457B9D;fontColor=#1D3557;" vertex="1" parent="aNwB7MC-OGxi8TxOSU20-19">
          <mxGeometry y="91" width="117" height="22" as="geometry" />
        </mxCell>
        <mxCell id="aNwB7MC-OGxi8TxOSU20-30" value="string" style="shape=partialRectangle;connectable=0;fillColor=none;top=0;left=0;bottom=0;right=0;align=left;spacingLeft=2;overflow=hidden;fontSize=11;labelBackgroundColor=none;strokeColor=#457B9D;fontColor=#1D3557;" vertex="1" parent="aNwB7MC-OGxi8TxOSU20-29">
          <mxGeometry width="36" height="22" as="geometry">
            <mxRectangle width="36" height="22" as="alternateBounds" />
          </mxGeometry>
        </mxCell>
        <mxCell id="aNwB7MC-OGxi8TxOSU20-31" value="direccion" style="shape=partialRectangle;connectable=0;fillColor=none;top=0;left=0;bottom=0;right=0;align=left;spacingLeft=2;overflow=hidden;fontSize=11;labelBackgroundColor=none;strokeColor=#457B9D;fontColor=#1D3557;" vertex="1" parent="aNwB7MC-OGxi8TxOSU20-29">
          <mxGeometry x="36" width="81" height="22" as="geometry">
            <mxRectangle width="81" height="22" as="alternateBounds" />
          </mxGeometry>
        </mxCell>
        <mxCell id="aNwB7MC-OGxi8TxOSU20-32" value="RESERVA" style="shape=table;startSize=25;container=1;collapsible=0;childLayout=tableLayout;fixedRows=1;rowLines=1;fontStyle=1;align=center;resizeLast=1;labelBackgroundColor=none;fillColor=#A8DADC;strokeColor=#457B9D;fontColor=#1D3557;" vertex="1" parent="1">
          <mxGeometry x="124" y="576" width="137" height="135" as="geometry" />
        </mxCell>
        <mxCell id="aNwB7MC-OGxi8TxOSU20-33" style="shape=tableRow;horizontal=0;startSize=0;swimlaneHead=0;swimlaneBody=0;fillColor=none;collapsible=0;dropTarget=0;points=[[0,0.5],[1,0.5]];portConstraint=eastwest;top=0;left=0;right=0;bottom=0;labelBackgroundColor=none;strokeColor=#457B9D;fontColor=#1D3557;" vertex="1" parent="aNwB7MC-OGxi8TxOSU20-32">
          <mxGeometry y="25" width="137" height="22" as="geometry" />
        </mxCell>
        <mxCell id="aNwB7MC-OGxi8TxOSU20-34" value="int" style="shape=partialRectangle;connectable=0;fillColor=none;top=0;left=0;bottom=0;right=0;align=left;spacingLeft=2;overflow=hidden;fontSize=11;labelBackgroundColor=none;strokeColor=#457B9D;fontColor=#1D3557;" vertex="1" parent="aNwB7MC-OGxi8TxOSU20-33">
          <mxGeometry width="36" height="22" as="geometry">
            <mxRectangle width="36" height="22" as="alternateBounds" />
          </mxGeometry>
        </mxCell>
        <mxCell id="aNwB7MC-OGxi8TxOSU20-35" value="id" style="shape=partialRectangle;connectable=0;fillColor=none;top=0;left=0;bottom=0;right=0;align=left;spacingLeft=2;overflow=hidden;fontSize=11;labelBackgroundColor=none;strokeColor=#457B9D;fontColor=#1D3557;" vertex="1" parent="aNwB7MC-OGxi8TxOSU20-33">
          <mxGeometry x="36" width="101" height="22" as="geometry">
            <mxRectangle width="101" height="22" as="alternateBounds" />
          </mxGeometry>
        </mxCell>
        <mxCell id="aNwB7MC-OGxi8TxOSU20-36" style="shape=tableRow;horizontal=0;startSize=0;swimlaneHead=0;swimlaneBody=0;fillColor=none;collapsible=0;dropTarget=0;points=[[0,0.5],[1,0.5]];portConstraint=eastwest;top=0;left=0;right=0;bottom=0;labelBackgroundColor=none;strokeColor=#457B9D;fontColor=#1D3557;" vertex="1" parent="aNwB7MC-OGxi8TxOSU20-32">
          <mxGeometry y="47" width="137" height="22" as="geometry" />
        </mxCell>
        <mxCell id="aNwB7MC-OGxi8TxOSU20-37" value="date" style="shape=partialRectangle;connectable=0;fillColor=none;top=0;left=0;bottom=0;right=0;align=left;spacingLeft=2;overflow=hidden;fontSize=11;labelBackgroundColor=none;strokeColor=#457B9D;fontColor=#1D3557;" vertex="1" parent="aNwB7MC-OGxi8TxOSU20-36">
          <mxGeometry width="36" height="22" as="geometry">
            <mxRectangle width="36" height="22" as="alternateBounds" />
          </mxGeometry>
        </mxCell>
        <mxCell id="aNwB7MC-OGxi8TxOSU20-38" value="fecha_creacion" style="shape=partialRectangle;connectable=0;fillColor=none;top=0;left=0;bottom=0;right=0;align=left;spacingLeft=2;overflow=hidden;fontSize=11;labelBackgroundColor=none;strokeColor=#457B9D;fontColor=#1D3557;" vertex="1" parent="aNwB7MC-OGxi8TxOSU20-36">
          <mxGeometry x="36" width="101" height="22" as="geometry">
            <mxRectangle width="101" height="22" as="alternateBounds" />
          </mxGeometry>
        </mxCell>
        <mxCell id="aNwB7MC-OGxi8TxOSU20-39" style="shape=tableRow;horizontal=0;startSize=0;swimlaneHead=0;swimlaneBody=0;fillColor=none;collapsible=0;dropTarget=0;points=[[0,0.5],[1,0.5]];portConstraint=eastwest;top=0;left=0;right=0;bottom=0;labelBackgroundColor=none;strokeColor=#457B9D;fontColor=#1D3557;" vertex="1" parent="aNwB7MC-OGxi8TxOSU20-32">
          <mxGeometry y="69" width="137" height="22" as="geometry" />
        </mxCell>
        <mxCell id="aNwB7MC-OGxi8TxOSU20-40" value="date" style="shape=partialRectangle;connectable=0;fillColor=none;top=0;left=0;bottom=0;right=0;align=left;spacingLeft=2;overflow=hidden;fontSize=11;labelBackgroundColor=none;strokeColor=#457B9D;fontColor=#1D3557;" vertex="1" parent="aNwB7MC-OGxi8TxOSU20-39">
          <mxGeometry width="36" height="22" as="geometry">
            <mxRectangle width="36" height="22" as="alternateBounds" />
          </mxGeometry>
        </mxCell>
        <mxCell id="aNwB7MC-OGxi8TxOSU20-41" value="fecha_entrega" style="shape=partialRectangle;connectable=0;fillColor=none;top=0;left=0;bottom=0;right=0;align=left;spacingLeft=2;overflow=hidden;fontSize=11;labelBackgroundColor=none;strokeColor=#457B9D;fontColor=#1D3557;" vertex="1" parent="aNwB7MC-OGxi8TxOSU20-39">
          <mxGeometry x="36" width="101" height="22" as="geometry">
            <mxRectangle width="101" height="22" as="alternateBounds" />
          </mxGeometry>
        </mxCell>
        <mxCell id="aNwB7MC-OGxi8TxOSU20-42" style="shape=tableRow;horizontal=0;startSize=0;swimlaneHead=0;swimlaneBody=0;fillColor=none;collapsible=0;dropTarget=0;points=[[0,0.5],[1,0.5]];portConstraint=eastwest;top=0;left=0;right=0;bottom=0;labelBackgroundColor=none;strokeColor=#457B9D;fontColor=#1D3557;" vertex="1" parent="aNwB7MC-OGxi8TxOSU20-32">
          <mxGeometry y="91" width="137" height="22" as="geometry" />
        </mxCell>
        <mxCell id="aNwB7MC-OGxi8TxOSU20-43" value="string" style="shape=partialRectangle;connectable=0;fillColor=none;top=0;left=0;bottom=0;right=0;align=left;spacingLeft=2;overflow=hidden;fontSize=11;labelBackgroundColor=none;strokeColor=#457B9D;fontColor=#1D3557;" vertex="1" parent="aNwB7MC-OGxi8TxOSU20-42">
          <mxGeometry width="36" height="22" as="geometry">
            <mxRectangle width="36" height="22" as="alternateBounds" />
          </mxGeometry>
        </mxCell>
        <mxCell id="aNwB7MC-OGxi8TxOSU20-44" value="rut_usuario" style="shape=partialRectangle;connectable=0;fillColor=none;top=0;left=0;bottom=0;right=0;align=left;spacingLeft=2;overflow=hidden;fontSize=11;labelBackgroundColor=none;strokeColor=#457B9D;fontColor=#1D3557;" vertex="1" parent="aNwB7MC-OGxi8TxOSU20-42">
          <mxGeometry x="36" width="101" height="22" as="geometry">
            <mxRectangle width="101" height="22" as="alternateBounds" />
          </mxGeometry>
        </mxCell>
        <mxCell id="aNwB7MC-OGxi8TxOSU20-45" style="shape=tableRow;horizontal=0;startSize=0;swimlaneHead=0;swimlaneBody=0;fillColor=none;collapsible=0;dropTarget=0;points=[[0,0.5],[1,0.5]];portConstraint=eastwest;top=0;left=0;right=0;bottom=0;labelBackgroundColor=none;strokeColor=#457B9D;fontColor=#1D3557;" vertex="1" parent="aNwB7MC-OGxi8TxOSU20-32">
          <mxGeometry y="113" width="137" height="22" as="geometry" />
        </mxCell>
        <mxCell id="aNwB7MC-OGxi8TxOSU20-46" value="int" style="shape=partialRectangle;connectable=0;fillColor=none;top=0;left=0;bottom=0;right=0;align=left;spacingLeft=2;overflow=hidden;fontSize=11;labelBackgroundColor=none;strokeColor=#457B9D;fontColor=#1D3557;" vertex="1" parent="aNwB7MC-OGxi8TxOSU20-45">
          <mxGeometry width="36" height="22" as="geometry">
            <mxRectangle width="36" height="22" as="alternateBounds" />
          </mxGeometry>
        </mxCell>
        <mxCell id="aNwB7MC-OGxi8TxOSU20-47" value="id_consultorio" style="shape=partialRectangle;connectable=0;fillColor=none;top=0;left=0;bottom=0;right=0;align=left;spacingLeft=2;overflow=hidden;fontSize=11;labelBackgroundColor=none;strokeColor=#457B9D;fontColor=#1D3557;" vertex="1" parent="aNwB7MC-OGxi8TxOSU20-45">
          <mxGeometry x="36" width="101" height="22" as="geometry">
            <mxRectangle width="101" height="22" as="alternateBounds" />
          </mxGeometry>
        </mxCell>
        <mxCell id="aNwB7MC-OGxi8TxOSU20-48" value="ATENCION" style="shape=table;startSize=25;container=1;collapsible=0;childLayout=tableLayout;fixedRows=1;rowLines=1;fontStyle=1;align=center;resizeLast=1;labelBackgroundColor=none;fillColor=#A8DADC;strokeColor=#457B9D;fontColor=#1D3557;" vertex="1" parent="1">
          <mxGeometry x="242" y="810" width="137" height="201" as="geometry" />
        </mxCell>
        <mxCell id="aNwB7MC-OGxi8TxOSU20-49" style="shape=tableRow;horizontal=0;startSize=0;swimlaneHead=0;swimlaneBody=0;fillColor=none;collapsible=0;dropTarget=0;points=[[0,0.5],[1,0.5]];portConstraint=eastwest;top=0;left=0;right=0;bottom=0;labelBackgroundColor=none;strokeColor=#457B9D;fontColor=#1D3557;" vertex="1" parent="aNwB7MC-OGxi8TxOSU20-48">
          <mxGeometry y="25" width="137" height="22" as="geometry" />
        </mxCell>
        <mxCell id="aNwB7MC-OGxi8TxOSU20-50" value="int" style="shape=partialRectangle;connectable=0;fillColor=none;top=0;left=0;bottom=0;right=0;align=left;spacingLeft=2;overflow=hidden;fontSize=11;labelBackgroundColor=none;strokeColor=#457B9D;fontColor=#1D3557;" vertex="1" parent="aNwB7MC-OGxi8TxOSU20-49">
          <mxGeometry width="36" height="22" as="geometry">
            <mxRectangle width="36" height="22" as="alternateBounds" />
          </mxGeometry>
        </mxCell>
        <mxCell id="aNwB7MC-OGxi8TxOSU20-51" value="id" style="shape=partialRectangle;connectable=0;fillColor=none;top=0;left=0;bottom=0;right=0;align=left;spacingLeft=2;overflow=hidden;fontSize=11;labelBackgroundColor=none;strokeColor=#457B9D;fontColor=#1D3557;" vertex="1" parent="aNwB7MC-OGxi8TxOSU20-49">
          <mxGeometry x="36" width="101" height="22" as="geometry">
            <mxRectangle width="101" height="22" as="alternateBounds" />
          </mxGeometry>
        </mxCell>
        <mxCell id="aNwB7MC-OGxi8TxOSU20-52" style="shape=tableRow;horizontal=0;startSize=0;swimlaneHead=0;swimlaneBody=0;fillColor=none;collapsible=0;dropTarget=0;points=[[0,0.5],[1,0.5]];portConstraint=eastwest;top=0;left=0;right=0;bottom=0;labelBackgroundColor=none;strokeColor=#457B9D;fontColor=#1D3557;" vertex="1" parent="aNwB7MC-OGxi8TxOSU20-48">
          <mxGeometry y="47" width="137" height="22" as="geometry" />
        </mxCell>
        <mxCell id="aNwB7MC-OGxi8TxOSU20-53" value="string" style="shape=partialRectangle;connectable=0;fillColor=none;top=0;left=0;bottom=0;right=0;align=left;spacingLeft=2;overflow=hidden;fontSize=11;labelBackgroundColor=none;strokeColor=#457B9D;fontColor=#1D3557;" vertex="1" parent="aNwB7MC-OGxi8TxOSU20-52">
          <mxGeometry width="36" height="22" as="geometry">
            <mxRectangle width="36" height="22" as="alternateBounds" />
          </mxGeometry>
        </mxCell>
        <mxCell id="aNwB7MC-OGxi8TxOSU20-54" value="medicacion" style="shape=partialRectangle;connectable=0;fillColor=none;top=0;left=0;bottom=0;right=0;align=left;spacingLeft=2;overflow=hidden;fontSize=11;labelBackgroundColor=none;strokeColor=#457B9D;fontColor=#1D3557;" vertex="1" parent="aNwB7MC-OGxi8TxOSU20-52">
          <mxGeometry x="36" width="101" height="22" as="geometry">
            <mxRectangle width="101" height="22" as="alternateBounds" />
          </mxGeometry>
        </mxCell>
        <mxCell id="aNwB7MC-OGxi8TxOSU20-55" style="shape=tableRow;horizontal=0;startSize=0;swimlaneHead=0;swimlaneBody=0;fillColor=none;collapsible=0;dropTarget=0;points=[[0,0.5],[1,0.5]];portConstraint=eastwest;top=0;left=0;right=0;bottom=0;labelBackgroundColor=none;strokeColor=#457B9D;fontColor=#1D3557;" vertex="1" parent="aNwB7MC-OGxi8TxOSU20-48">
          <mxGeometry y="69" width="137" height="22" as="geometry" />
        </mxCell>
        <mxCell id="aNwB7MC-OGxi8TxOSU20-56" value="string" style="shape=partialRectangle;connectable=0;fillColor=none;top=0;left=0;bottom=0;right=0;align=left;spacingLeft=2;overflow=hidden;fontSize=11;labelBackgroundColor=none;strokeColor=#457B9D;fontColor=#1D3557;" vertex="1" parent="aNwB7MC-OGxi8TxOSU20-55">
          <mxGeometry width="36" height="22" as="geometry">
            <mxRectangle width="36" height="22" as="alternateBounds" />
          </mxGeometry>
        </mxCell>
        <mxCell id="aNwB7MC-OGxi8TxOSU20-57" value="estado" style="shape=partialRectangle;connectable=0;fillColor=none;top=0;left=0;bottom=0;right=0;align=left;spacingLeft=2;overflow=hidden;fontSize=11;labelBackgroundColor=none;strokeColor=#457B9D;fontColor=#1D3557;" vertex="1" parent="aNwB7MC-OGxi8TxOSU20-55">
          <mxGeometry x="36" width="101" height="22" as="geometry">
            <mxRectangle width="101" height="22" as="alternateBounds" />
          </mxGeometry>
        </mxCell>
        <mxCell id="aNwB7MC-OGxi8TxOSU20-58" style="shape=tableRow;horizontal=0;startSize=0;swimlaneHead=0;swimlaneBody=0;fillColor=none;collapsible=0;dropTarget=0;points=[[0,0.5],[1,0.5]];portConstraint=eastwest;top=0;left=0;right=0;bottom=0;labelBackgroundColor=none;strokeColor=#457B9D;fontColor=#1D3557;" vertex="1" parent="aNwB7MC-OGxi8TxOSU20-48">
          <mxGeometry y="91" width="137" height="22" as="geometry" />
        </mxCell>
        <mxCell id="aNwB7MC-OGxi8TxOSU20-59" value="date" style="shape=partialRectangle;connectable=0;fillColor=none;top=0;left=0;bottom=0;right=0;align=left;spacingLeft=2;overflow=hidden;fontSize=11;labelBackgroundColor=none;strokeColor=#457B9D;fontColor=#1D3557;" vertex="1" parent="aNwB7MC-OGxi8TxOSU20-58">
          <mxGeometry width="36" height="22" as="geometry">
            <mxRectangle width="36" height="22" as="alternateBounds" />
          </mxGeometry>
        </mxCell>
        <mxCell id="aNwB7MC-OGxi8TxOSU20-60" value="fecha" style="shape=partialRectangle;connectable=0;fillColor=none;top=0;left=0;bottom=0;right=0;align=left;spacingLeft=2;overflow=hidden;fontSize=11;labelBackgroundColor=none;strokeColor=#457B9D;fontColor=#1D3557;" vertex="1" parent="aNwB7MC-OGxi8TxOSU20-58">
          <mxGeometry x="36" width="101" height="22" as="geometry">
            <mxRectangle width="101" height="22" as="alternateBounds" />
          </mxGeometry>
        </mxCell>
        <mxCell id="aNwB7MC-OGxi8TxOSU20-61" style="shape=tableRow;horizontal=0;startSize=0;swimlaneHead=0;swimlaneBody=0;fillColor=none;collapsible=0;dropTarget=0;points=[[0,0.5],[1,0.5]];portConstraint=eastwest;top=0;left=0;right=0;bottom=0;labelBackgroundColor=none;strokeColor=#457B9D;fontColor=#1D3557;" vertex="1" parent="aNwB7MC-OGxi8TxOSU20-48">
          <mxGeometry y="113" width="137" height="22" as="geometry" />
        </mxCell>
        <mxCell id="aNwB7MC-OGxi8TxOSU20-62" value="string" style="shape=partialRectangle;connectable=0;fillColor=none;top=0;left=0;bottom=0;right=0;align=left;spacingLeft=2;overflow=hidden;fontSize=11;labelBackgroundColor=none;strokeColor=#457B9D;fontColor=#1D3557;" vertex="1" parent="aNwB7MC-OGxi8TxOSU20-61">
          <mxGeometry width="36" height="22" as="geometry">
            <mxRectangle width="36" height="22" as="alternateBounds" />
          </mxGeometry>
        </mxCell>
        <mxCell id="aNwB7MC-OGxi8TxOSU20-63" value="gravedad" style="shape=partialRectangle;connectable=0;fillColor=none;top=0;left=0;bottom=0;right=0;align=left;spacingLeft=2;overflow=hidden;fontSize=11;labelBackgroundColor=none;strokeColor=#457B9D;fontColor=#1D3557;" vertex="1" parent="aNwB7MC-OGxi8TxOSU20-61">
          <mxGeometry x="36" width="101" height="22" as="geometry">
            <mxRectangle width="101" height="22" as="alternateBounds" />
          </mxGeometry>
        </mxCell>
        <mxCell id="aNwB7MC-OGxi8TxOSU20-64" style="shape=tableRow;horizontal=0;startSize=0;swimlaneHead=0;swimlaneBody=0;fillColor=none;collapsible=0;dropTarget=0;points=[[0,0.5],[1,0.5]];portConstraint=eastwest;top=0;left=0;right=0;bottom=0;labelBackgroundColor=none;strokeColor=#457B9D;fontColor=#1D3557;" vertex="1" parent="aNwB7MC-OGxi8TxOSU20-48">
          <mxGeometry y="135" width="137" height="22" as="geometry" />
        </mxCell>
        <mxCell id="aNwB7MC-OGxi8TxOSU20-65" value="string" style="shape=partialRectangle;connectable=0;fillColor=none;top=0;left=0;bottom=0;right=0;align=left;spacingLeft=2;overflow=hidden;fontSize=11;labelBackgroundColor=none;strokeColor=#457B9D;fontColor=#1D3557;" vertex="1" parent="aNwB7MC-OGxi8TxOSU20-64">
          <mxGeometry width="36" height="22" as="geometry">
            <mxRectangle width="36" height="22" as="alternateBounds" />
          </mxGeometry>
        </mxCell>
        <mxCell id="aNwB7MC-OGxi8TxOSU20-66" value="modalidad" style="shape=partialRectangle;connectable=0;fillColor=none;top=0;left=0;bottom=0;right=0;align=left;spacingLeft=2;overflow=hidden;fontSize=11;labelBackgroundColor=none;strokeColor=#457B9D;fontColor=#1D3557;" vertex="1" parent="aNwB7MC-OGxi8TxOSU20-64">
          <mxGeometry x="36" width="101" height="22" as="geometry">
            <mxRectangle width="101" height="22" as="alternateBounds" />
          </mxGeometry>
        </mxCell>
        <mxCell id="aNwB7MC-OGxi8TxOSU20-67" style="shape=tableRow;horizontal=0;startSize=0;swimlaneHead=0;swimlaneBody=0;fillColor=none;collapsible=0;dropTarget=0;points=[[0,0.5],[1,0.5]];portConstraint=eastwest;top=0;left=0;right=0;bottom=0;labelBackgroundColor=none;strokeColor=#457B9D;fontColor=#1D3557;" vertex="1" parent="aNwB7MC-OGxi8TxOSU20-48">
          <mxGeometry y="157" width="137" height="22" as="geometry" />
        </mxCell>
        <mxCell id="aNwB7MC-OGxi8TxOSU20-68" value="string" style="shape=partialRectangle;connectable=0;fillColor=none;top=0;left=0;bottom=0;right=0;align=left;spacingLeft=2;overflow=hidden;fontSize=11;labelBackgroundColor=none;strokeColor=#457B9D;fontColor=#1D3557;" vertex="1" parent="aNwB7MC-OGxi8TxOSU20-67">
          <mxGeometry width="36" height="22" as="geometry">
            <mxRectangle width="36" height="22" as="alternateBounds" />
          </mxGeometry>
        </mxCell>
        <mxCell id="aNwB7MC-OGxi8TxOSU20-69" value="rut_profesional" style="shape=partialRectangle;connectable=0;fillColor=none;top=0;left=0;bottom=0;right=0;align=left;spacingLeft=2;overflow=hidden;fontSize=11;labelBackgroundColor=none;strokeColor=#457B9D;fontColor=#1D3557;" vertex="1" parent="aNwB7MC-OGxi8TxOSU20-67">
          <mxGeometry x="36" width="101" height="22" as="geometry">
            <mxRectangle width="101" height="22" as="alternateBounds" />
          </mxGeometry>
        </mxCell>
        <mxCell id="aNwB7MC-OGxi8TxOSU20-70" style="shape=tableRow;horizontal=0;startSize=0;swimlaneHead=0;swimlaneBody=0;fillColor=none;collapsible=0;dropTarget=0;points=[[0,0.5],[1,0.5]];portConstraint=eastwest;top=0;left=0;right=0;bottom=0;labelBackgroundColor=none;strokeColor=#457B9D;fontColor=#1D3557;" vertex="1" parent="aNwB7MC-OGxi8TxOSU20-48">
          <mxGeometry y="179" width="137" height="22" as="geometry" />
        </mxCell>
        <mxCell id="aNwB7MC-OGxi8TxOSU20-71" value="int" style="shape=partialRectangle;connectable=0;fillColor=none;top=0;left=0;bottom=0;right=0;align=left;spacingLeft=2;overflow=hidden;fontSize=11;labelBackgroundColor=none;strokeColor=#457B9D;fontColor=#1D3557;" vertex="1" parent="aNwB7MC-OGxi8TxOSU20-70">
          <mxGeometry width="36" height="22" as="geometry">
            <mxRectangle width="36" height="22" as="alternateBounds" />
          </mxGeometry>
        </mxCell>
        <mxCell id="aNwB7MC-OGxi8TxOSU20-72" value="id_reserva" style="shape=partialRectangle;connectable=0;fillColor=none;top=0;left=0;bottom=0;right=0;align=left;spacingLeft=2;overflow=hidden;fontSize=11;labelBackgroundColor=none;strokeColor=#457B9D;fontColor=#1D3557;" vertex="1" parent="aNwB7MC-OGxi8TxOSU20-70">
          <mxGeometry x="36" width="101" height="22" as="geometry">
            <mxRectangle width="101" height="22" as="alternateBounds" />
          </mxGeometry>
        </mxCell>
        <mxCell id="aNwB7MC-OGxi8TxOSU20-73" value="CONSULTORIO" style="shape=table;startSize=25;container=1;collapsible=0;childLayout=tableLayout;fixedRows=1;rowLines=1;fontStyle=1;align=center;resizeLast=1;labelBackgroundColor=none;fillColor=#A8DADC;strokeColor=#457B9D;fontColor=#1D3557;" vertex="1" parent="1">
          <mxGeometry x="237" y="188" width="138" height="289" as="geometry" />
        </mxCell>
        <mxCell id="aNwB7MC-OGxi8TxOSU20-74" style="shape=tableRow;horizontal=0;startSize=0;swimlaneHead=0;swimlaneBody=0;fillColor=none;collapsible=0;dropTarget=0;points=[[0,0.5],[1,0.5]];portConstraint=eastwest;top=0;left=0;right=0;bottom=0;labelBackgroundColor=none;strokeColor=#457B9D;fontColor=#1D3557;" vertex="1" parent="aNwB7MC-OGxi8TxOSU20-73">
          <mxGeometry y="25" width="138" height="22" as="geometry" />
        </mxCell>
        <mxCell id="aNwB7MC-OGxi8TxOSU20-75" value="int" style="shape=partialRectangle;connectable=0;fillColor=none;top=0;left=0;bottom=0;right=0;align=left;spacingLeft=2;overflow=hidden;fontSize=11;labelBackgroundColor=none;strokeColor=#457B9D;fontColor=#1D3557;" vertex="1" parent="aNwB7MC-OGxi8TxOSU20-74">
          <mxGeometry width="36" height="22" as="geometry">
            <mxRectangle width="36" height="22" as="alternateBounds" />
          </mxGeometry>
        </mxCell>
        <mxCell id="aNwB7MC-OGxi8TxOSU20-76" value="id" style="shape=partialRectangle;connectable=0;fillColor=none;top=0;left=0;bottom=0;right=0;align=left;spacingLeft=2;overflow=hidden;fontSize=11;labelBackgroundColor=none;strokeColor=#457B9D;fontColor=#1D3557;" vertex="1" parent="aNwB7MC-OGxi8TxOSU20-74">
          <mxGeometry x="36" width="102" height="22" as="geometry">
            <mxRectangle width="102" height="22" as="alternateBounds" />
          </mxGeometry>
        </mxCell>
        <mxCell id="aNwB7MC-OGxi8TxOSU20-77" style="shape=tableRow;horizontal=0;startSize=0;swimlaneHead=0;swimlaneBody=0;fillColor=none;collapsible=0;dropTarget=0;points=[[0,0.5],[1,0.5]];portConstraint=eastwest;top=0;left=0;right=0;bottom=0;labelBackgroundColor=none;strokeColor=#457B9D;fontColor=#1D3557;" vertex="1" parent="aNwB7MC-OGxi8TxOSU20-73">
          <mxGeometry y="47" width="138" height="22" as="geometry" />
        </mxCell>
        <mxCell id="aNwB7MC-OGxi8TxOSU20-78" value="string" style="shape=partialRectangle;connectable=0;fillColor=none;top=0;left=0;bottom=0;right=0;align=left;spacingLeft=2;overflow=hidden;fontSize=11;labelBackgroundColor=none;strokeColor=#457B9D;fontColor=#1D3557;" vertex="1" parent="aNwB7MC-OGxi8TxOSU20-77">
          <mxGeometry width="36" height="22" as="geometry">
            <mxRectangle width="36" height="22" as="alternateBounds" />
          </mxGeometry>
        </mxCell>
        <mxCell id="aNwB7MC-OGxi8TxOSU20-79" value="codigo_comuna" style="shape=partialRectangle;connectable=0;fillColor=none;top=0;left=0;bottom=0;right=0;align=left;spacingLeft=2;overflow=hidden;fontSize=11;labelBackgroundColor=none;strokeColor=#457B9D;fontColor=#1D3557;" vertex="1" parent="aNwB7MC-OGxi8TxOSU20-77">
          <mxGeometry x="36" width="102" height="22" as="geometry">
            <mxRectangle width="102" height="22" as="alternateBounds" />
          </mxGeometry>
        </mxCell>
        <mxCell id="aNwB7MC-OGxi8TxOSU20-80" style="shape=tableRow;horizontal=0;startSize=0;swimlaneHead=0;swimlaneBody=0;fillColor=none;collapsible=0;dropTarget=0;points=[[0,0.5],[1,0.5]];portConstraint=eastwest;top=0;left=0;right=0;bottom=0;labelBackgroundColor=none;strokeColor=#457B9D;fontColor=#1D3557;" vertex="1" parent="aNwB7MC-OGxi8TxOSU20-73">
          <mxGeometry y="69" width="138" height="22" as="geometry" />
        </mxCell>
        <mxCell id="aNwB7MC-OGxi8TxOSU20-81" value="string" style="shape=partialRectangle;connectable=0;fillColor=none;top=0;left=0;bottom=0;right=0;align=left;spacingLeft=2;overflow=hidden;fontSize=11;labelBackgroundColor=none;strokeColor=#457B9D;fontColor=#1D3557;" vertex="1" parent="aNwB7MC-OGxi8TxOSU20-80">
          <mxGeometry width="36" height="22" as="geometry">
            <mxRectangle width="36" height="22" as="alternateBounds" />
          </mxGeometry>
        </mxCell>
        <mxCell id="aNwB7MC-OGxi8TxOSU20-82" value="codigo_region" style="shape=partialRectangle;connectable=0;fillColor=none;top=0;left=0;bottom=0;right=0;align=left;spacingLeft=2;overflow=hidden;fontSize=11;labelBackgroundColor=none;strokeColor=#457B9D;fontColor=#1D3557;" vertex="1" parent="aNwB7MC-OGxi8TxOSU20-80">
          <mxGeometry x="36" width="102" height="22" as="geometry">
            <mxRectangle width="102" height="22" as="alternateBounds" />
          </mxGeometry>
        </mxCell>
        <mxCell id="aNwB7MC-OGxi8TxOSU20-83" style="shape=tableRow;horizontal=0;startSize=0;swimlaneHead=0;swimlaneBody=0;fillColor=none;collapsible=0;dropTarget=0;points=[[0,0.5],[1,0.5]];portConstraint=eastwest;top=0;left=0;right=0;bottom=0;labelBackgroundColor=none;strokeColor=#457B9D;fontColor=#1D3557;" vertex="1" parent="aNwB7MC-OGxi8TxOSU20-73">
          <mxGeometry y="91" width="138" height="22" as="geometry" />
        </mxCell>
        <mxCell id="aNwB7MC-OGxi8TxOSU20-84" value="string" style="shape=partialRectangle;connectable=0;fillColor=none;top=0;left=0;bottom=0;right=0;align=left;spacingLeft=2;overflow=hidden;fontSize=11;labelBackgroundColor=none;strokeColor=#457B9D;fontColor=#1D3557;" vertex="1" parent="aNwB7MC-OGxi8TxOSU20-83">
          <mxGeometry width="36" height="22" as="geometry">
            <mxRectangle width="36" height="22" as="alternateBounds" />
          </mxGeometry>
        </mxCell>
        <mxCell id="aNwB7MC-OGxi8TxOSU20-85" value="tipo" style="shape=partialRectangle;connectable=0;fillColor=none;top=0;left=0;bottom=0;right=0;align=left;spacingLeft=2;overflow=hidden;fontSize=11;labelBackgroundColor=none;strokeColor=#457B9D;fontColor=#1D3557;" vertex="1" parent="aNwB7MC-OGxi8TxOSU20-83">
          <mxGeometry x="36" width="102" height="22" as="geometry">
            <mxRectangle width="102" height="22" as="alternateBounds" />
          </mxGeometry>
        </mxCell>
        <mxCell id="aNwB7MC-OGxi8TxOSU20-86" style="shape=tableRow;horizontal=0;startSize=0;swimlaneHead=0;swimlaneBody=0;fillColor=none;collapsible=0;dropTarget=0;points=[[0,0.5],[1,0.5]];portConstraint=eastwest;top=0;left=0;right=0;bottom=0;labelBackgroundColor=none;strokeColor=#457B9D;fontColor=#1D3557;" vertex="1" parent="aNwB7MC-OGxi8TxOSU20-73">
          <mxGeometry y="113" width="138" height="22" as="geometry" />
        </mxCell>
        <mxCell id="aNwB7MC-OGxi8TxOSU20-87" value="string" style="shape=partialRectangle;connectable=0;fillColor=none;top=0;left=0;bottom=0;right=0;align=left;spacingLeft=2;overflow=hidden;fontSize=11;labelBackgroundColor=none;strokeColor=#457B9D;fontColor=#1D3557;" vertex="1" parent="aNwB7MC-OGxi8TxOSU20-86">
          <mxGeometry width="36" height="22" as="geometry">
            <mxRectangle width="36" height="22" as="alternateBounds" />
          </mxGeometry>
        </mxCell>
        <mxCell id="aNwB7MC-OGxi8TxOSU20-88" value="nivel" style="shape=partialRectangle;connectable=0;fillColor=none;top=0;left=0;bottom=0;right=0;align=left;spacingLeft=2;overflow=hidden;fontSize=11;labelBackgroundColor=none;strokeColor=#457B9D;fontColor=#1D3557;" vertex="1" parent="aNwB7MC-OGxi8TxOSU20-86">
          <mxGeometry x="36" width="102" height="22" as="geometry">
            <mxRectangle width="102" height="22" as="alternateBounds" />
          </mxGeometry>
        </mxCell>
        <mxCell id="aNwB7MC-OGxi8TxOSU20-89" style="shape=tableRow;horizontal=0;startSize=0;swimlaneHead=0;swimlaneBody=0;fillColor=none;collapsible=0;dropTarget=0;points=[[0,0.5],[1,0.5]];portConstraint=eastwest;top=0;left=0;right=0;bottom=0;labelBackgroundColor=none;strokeColor=#457B9D;fontColor=#1D3557;" vertex="1" parent="aNwB7MC-OGxi8TxOSU20-73">
          <mxGeometry y="135" width="138" height="22" as="geometry" />
        </mxCell>
        <mxCell id="aNwB7MC-OGxi8TxOSU20-90" value="string" style="shape=partialRectangle;connectable=0;fillColor=none;top=0;left=0;bottom=0;right=0;align=left;spacingLeft=2;overflow=hidden;fontSize=11;labelBackgroundColor=none;strokeColor=#457B9D;fontColor=#1D3557;" vertex="1" parent="aNwB7MC-OGxi8TxOSU20-89">
          <mxGeometry width="36" height="22" as="geometry">
            <mxRectangle width="36" height="22" as="alternateBounds" />
          </mxGeometry>
        </mxCell>
        <mxCell id="aNwB7MC-OGxi8TxOSU20-91" value="nombre" style="shape=partialRectangle;connectable=0;fillColor=none;top=0;left=0;bottom=0;right=0;align=left;spacingLeft=2;overflow=hidden;fontSize=11;labelBackgroundColor=none;strokeColor=#457B9D;fontColor=#1D3557;" vertex="1" parent="aNwB7MC-OGxi8TxOSU20-89">
          <mxGeometry x="36" width="102" height="22" as="geometry">
            <mxRectangle width="102" height="22" as="alternateBounds" />
          </mxGeometry>
        </mxCell>
        <mxCell id="aNwB7MC-OGxi8TxOSU20-92" style="shape=tableRow;horizontal=0;startSize=0;swimlaneHead=0;swimlaneBody=0;fillColor=none;collapsible=0;dropTarget=0;points=[[0,0.5],[1,0.5]];portConstraint=eastwest;top=0;left=0;right=0;bottom=0;labelBackgroundColor=none;strokeColor=#457B9D;fontColor=#1D3557;" vertex="1" parent="aNwB7MC-OGxi8TxOSU20-73">
          <mxGeometry y="157" width="138" height="22" as="geometry" />
        </mxCell>
        <mxCell id="aNwB7MC-OGxi8TxOSU20-93" value="string" style="shape=partialRectangle;connectable=0;fillColor=none;top=0;left=0;bottom=0;right=0;align=left;spacingLeft=2;overflow=hidden;fontSize=11;labelBackgroundColor=none;strokeColor=#457B9D;fontColor=#1D3557;" vertex="1" parent="aNwB7MC-OGxi8TxOSU20-92">
          <mxGeometry width="36" height="22" as="geometry">
            <mxRectangle width="36" height="22" as="alternateBounds" />
          </mxGeometry>
        </mxCell>
        <mxCell id="aNwB7MC-OGxi8TxOSU20-94" value="categoria" style="shape=partialRectangle;connectable=0;fillColor=none;top=0;left=0;bottom=0;right=0;align=left;spacingLeft=2;overflow=hidden;fontSize=11;labelBackgroundColor=none;strokeColor=#457B9D;fontColor=#1D3557;" vertex="1" parent="aNwB7MC-OGxi8TxOSU20-92">
          <mxGeometry x="36" width="102" height="22" as="geometry">
            <mxRectangle width="102" height="22" as="alternateBounds" />
          </mxGeometry>
        </mxCell>
        <mxCell id="aNwB7MC-OGxi8TxOSU20-95" style="shape=tableRow;horizontal=0;startSize=0;swimlaneHead=0;swimlaneBody=0;fillColor=none;collapsible=0;dropTarget=0;points=[[0,0.5],[1,0.5]];portConstraint=eastwest;top=0;left=0;right=0;bottom=0;labelBackgroundColor=none;strokeColor=#457B9D;fontColor=#1D3557;" vertex="1" parent="aNwB7MC-OGxi8TxOSU20-73">
          <mxGeometry y="179" width="138" height="22" as="geometry" />
        </mxCell>
        <mxCell id="aNwB7MC-OGxi8TxOSU20-96" value="string" style="shape=partialRectangle;connectable=0;fillColor=none;top=0;left=0;bottom=0;right=0;align=left;spacingLeft=2;overflow=hidden;fontSize=11;labelBackgroundColor=none;strokeColor=#457B9D;fontColor=#1D3557;" vertex="1" parent="aNwB7MC-OGxi8TxOSU20-95">
          <mxGeometry width="36" height="22" as="geometry">
            <mxRectangle width="36" height="22" as="alternateBounds" />
          </mxGeometry>
        </mxCell>
        <mxCell id="aNwB7MC-OGxi8TxOSU20-97" value="complejidad" style="shape=partialRectangle;connectable=0;fillColor=none;top=0;left=0;bottom=0;right=0;align=left;spacingLeft=2;overflow=hidden;fontSize=11;labelBackgroundColor=none;strokeColor=#457B9D;fontColor=#1D3557;" vertex="1" parent="aNwB7MC-OGxi8TxOSU20-95">
          <mxGeometry x="36" width="102" height="22" as="geometry">
            <mxRectangle width="102" height="22" as="alternateBounds" />
          </mxGeometry>
        </mxCell>
        <mxCell id="aNwB7MC-OGxi8TxOSU20-98" style="shape=tableRow;horizontal=0;startSize=0;swimlaneHead=0;swimlaneBody=0;fillColor=none;collapsible=0;dropTarget=0;points=[[0,0.5],[1,0.5]];portConstraint=eastwest;top=0;left=0;right=0;bottom=0;labelBackgroundColor=none;strokeColor=#457B9D;fontColor=#1D3557;" vertex="1" parent="aNwB7MC-OGxi8TxOSU20-73">
          <mxGeometry y="201" width="138" height="22" as="geometry" />
        </mxCell>
        <mxCell id="aNwB7MC-OGxi8TxOSU20-99" value="string" style="shape=partialRectangle;connectable=0;fillColor=none;top=0;left=0;bottom=0;right=0;align=left;spacingLeft=2;overflow=hidden;fontSize=11;labelBackgroundColor=none;strokeColor=#457B9D;fontColor=#1D3557;" vertex="1" parent="aNwB7MC-OGxi8TxOSU20-98">
          <mxGeometry width="36" height="22" as="geometry">
            <mxRectangle width="36" height="22" as="alternateBounds" />
          </mxGeometry>
        </mxCell>
        <mxCell id="aNwB7MC-OGxi8TxOSU20-100" value="coordenadas" style="shape=partialRectangle;connectable=0;fillColor=none;top=0;left=0;bottom=0;right=0;align=left;spacingLeft=2;overflow=hidden;fontSize=11;labelBackgroundColor=none;strokeColor=#457B9D;fontColor=#1D3557;" vertex="1" parent="aNwB7MC-OGxi8TxOSU20-98">
          <mxGeometry x="36" width="102" height="22" as="geometry">
            <mxRectangle width="102" height="22" as="alternateBounds" />
          </mxGeometry>
        </mxCell>
        <mxCell id="aNwB7MC-OGxi8TxOSU20-101" style="shape=tableRow;horizontal=0;startSize=0;swimlaneHead=0;swimlaneBody=0;fillColor=none;collapsible=0;dropTarget=0;points=[[0,0.5],[1,0.5]];portConstraint=eastwest;top=0;left=0;right=0;bottom=0;labelBackgroundColor=none;strokeColor=#457B9D;fontColor=#1D3557;" vertex="1" parent="aNwB7MC-OGxi8TxOSU20-73">
          <mxGeometry y="223" width="138" height="22" as="geometry" />
        </mxCell>
        <mxCell id="aNwB7MC-OGxi8TxOSU20-102" value="string" style="shape=partialRectangle;connectable=0;fillColor=none;top=0;left=0;bottom=0;right=0;align=left;spacingLeft=2;overflow=hidden;fontSize=11;labelBackgroundColor=none;strokeColor=#457B9D;fontColor=#1D3557;" vertex="1" parent="aNwB7MC-OGxi8TxOSU20-101">
          <mxGeometry width="36" height="22" as="geometry">
            <mxRectangle width="36" height="22" as="alternateBounds" />
          </mxGeometry>
        </mxCell>
        <mxCell id="aNwB7MC-OGxi8TxOSU20-103" value="n_telefono" style="shape=partialRectangle;connectable=0;fillColor=none;top=0;left=0;bottom=0;right=0;align=left;spacingLeft=2;overflow=hidden;fontSize=11;labelBackgroundColor=none;strokeColor=#457B9D;fontColor=#1D3557;" vertex="1" parent="aNwB7MC-OGxi8TxOSU20-101">
          <mxGeometry x="36" width="102" height="22" as="geometry">
            <mxRectangle width="102" height="22" as="alternateBounds" />
          </mxGeometry>
        </mxCell>
        <mxCell id="aNwB7MC-OGxi8TxOSU20-104" style="shape=tableRow;horizontal=0;startSize=0;swimlaneHead=0;swimlaneBody=0;fillColor=none;collapsible=0;dropTarget=0;points=[[0,0.5],[1,0.5]];portConstraint=eastwest;top=0;left=0;right=0;bottom=0;labelBackgroundColor=none;strokeColor=#457B9D;fontColor=#1D3557;" vertex="1" parent="aNwB7MC-OGxi8TxOSU20-73">
          <mxGeometry y="245" width="138" height="22" as="geometry" />
        </mxCell>
        <mxCell id="aNwB7MC-OGxi8TxOSU20-105" value="bool" style="shape=partialRectangle;connectable=0;fillColor=none;top=0;left=0;bottom=0;right=0;align=left;spacingLeft=2;overflow=hidden;fontSize=11;labelBackgroundColor=none;strokeColor=#457B9D;fontColor=#1D3557;" vertex="1" parent="aNwB7MC-OGxi8TxOSU20-104">
          <mxGeometry width="36" height="22" as="geometry">
            <mxRectangle width="36" height="22" as="alternateBounds" />
          </mxGeometry>
        </mxCell>
        <mxCell id="aNwB7MC-OGxi8TxOSU20-106" value="tiene_sapu" style="shape=partialRectangle;connectable=0;fillColor=none;top=0;left=0;bottom=0;right=0;align=left;spacingLeft=2;overflow=hidden;fontSize=11;labelBackgroundColor=none;strokeColor=#457B9D;fontColor=#1D3557;" vertex="1" parent="aNwB7MC-OGxi8TxOSU20-104">
          <mxGeometry x="36" width="102" height="22" as="geometry">
            <mxRectangle width="102" height="22" as="alternateBounds" />
          </mxGeometry>
        </mxCell>
        <mxCell id="aNwB7MC-OGxi8TxOSU20-107" style="shape=tableRow;horizontal=0;startSize=0;swimlaneHead=0;swimlaneBody=0;fillColor=none;collapsible=0;dropTarget=0;points=[[0,0.5],[1,0.5]];portConstraint=eastwest;top=0;left=0;right=0;bottom=0;labelBackgroundColor=none;strokeColor=#457B9D;fontColor=#1D3557;" vertex="1" parent="aNwB7MC-OGxi8TxOSU20-73">
          <mxGeometry y="267" width="138" height="22" as="geometry" />
        </mxCell>
        <mxCell id="aNwB7MC-OGxi8TxOSU20-108" value="bool" style="shape=partialRectangle;connectable=0;fillColor=none;top=0;left=0;bottom=0;right=0;align=left;spacingLeft=2;overflow=hidden;fontSize=11;labelBackgroundColor=none;strokeColor=#457B9D;fontColor=#1D3557;" vertex="1" parent="aNwB7MC-OGxi8TxOSU20-107">
          <mxGeometry width="36" height="22" as="geometry">
            <mxRectangle width="36" height="22" as="alternateBounds" />
          </mxGeometry>
        </mxCell>
        <mxCell id="aNwB7MC-OGxi8TxOSU20-109" value="tiene_urgencia" style="shape=partialRectangle;connectable=0;fillColor=none;top=0;left=0;bottom=0;right=0;align=left;spacingLeft=2;overflow=hidden;fontSize=11;labelBackgroundColor=none;strokeColor=#457B9D;fontColor=#1D3557;" vertex="1" parent="aNwB7MC-OGxi8TxOSU20-107">
          <mxGeometry x="36" width="102" height="22" as="geometry">
            <mxRectangle width="102" height="22" as="alternateBounds" />
          </mxGeometry>
        </mxCell>
        <mxCell id="aNwB7MC-OGxi8TxOSU20-110" value="ES" style="curved=1;startArrow=ERmandOne;startSize=10;;endArrow=ERmany;endSize=10;;exitX=0.5;exitY=1;entryX=0.5;entryY=0;rounded=0;labelBackgroundColor=none;fontColor=default;strokeColor=#457B9D;" edge="1" parent="1" source="aNwB7MC-OGxi8TxOSU20-1" target="aNwB7MC-OGxi8TxOSU20-19">
          <mxGeometry relative="1" as="geometry">
            <Array as="points" />
          </mxGeometry>
        </mxCell>
        <mxCell id="aNwB7MC-OGxi8TxOSU20-111" value="Realiza" style="curved=1;startArrow=ERmandOne;startSize=10;;endArrow=ERmany;endSize=10;;exitX=0.5;exitY=1;entryX=0.02;entryY=0;rounded=0;labelBackgroundColor=none;fontColor=default;strokeColor=#457B9D;" edge="1" parent="1" source="aNwB7MC-OGxi8TxOSU20-19" target="aNwB7MC-OGxi8TxOSU20-32">
          <mxGeometry relative="1" as="geometry">
            <Array as="points">
              <mxPoint x="78" y="526" />
            </Array>
          </mxGeometry>
        </mxCell>
        <mxCell id="aNwB7MC-OGxi8TxOSU20-112" value="Genera" style="curved=1;startArrow=ERmandOne;startSize=10;;endArrow=ERmany;endSize=10;;exitX=0.5;exitY=1;entryX=0;entryY=0.07;rounded=0;labelBackgroundColor=none;fontColor=default;strokeColor=#457B9D;" edge="1" parent="1" source="aNwB7MC-OGxi8TxOSU20-32" target="aNwB7MC-OGxi8TxOSU20-48">
          <mxGeometry relative="1" as="geometry">
            <Array as="points">
              <mxPoint x="192" y="760" />
            </Array>
          </mxGeometry>
        </mxCell>
        <mxCell id="aNwB7MC-OGxi8TxOSU20-113" value="Tiene" style="curved=1;startArrow=ERmandOne;startSize=10;;endArrow=ERmany;endSize=10;;exitX=0.5;exitY=1;entryX=0.97;entryY=0;rounded=0;labelBackgroundColor=none;fontColor=default;strokeColor=#457B9D;" edge="1" parent="1" source="aNwB7MC-OGxi8TxOSU20-73" target="aNwB7MC-OGxi8TxOSU20-32">
          <mxGeometry relative="1" as="geometry">
            <Array as="points">
              <mxPoint x="306" y="526" />
            </Array>
          </mxGeometry>
        </mxCell>
        <mxCell id="aNwB7MC-OGxi8TxOSU20-114" value="Trabaja en" style="curved=1;startArrow=ERmandOne;startSize=10;;endArrow=ERmany;endSize=10;;exitX=0.5;exitY=1;entryX=0.5;entryY=0;rounded=0;labelBackgroundColor=none;fontColor=default;strokeColor=#457B9D;" edge="1" parent="1" source="aNwB7MC-OGxi8TxOSU20-5" target="aNwB7MC-OGxi8TxOSU20-73">
          <mxGeometry relative="1" as="geometry">
            <Array as="points" />
          </mxGeometry>
        </mxCell>
        <mxCell id="aNwB7MC-OGxi8TxOSU20-115" value="Supervisa" style="curved=1;startArrow=ERmandOne;startSize=10;;endArrow=ERmany;endSize=10;;exitX=0.5;exitY=1;entryX=1;entryY=0.07;rounded=0;labelBackgroundColor=none;fontColor=default;strokeColor=#457B9D;" edge="1" parent="1" source="aNwB7MC-OGxi8TxOSU20-12" target="aNwB7MC-OGxi8TxOSU20-48">
          <mxGeometry relative="1" as="geometry">
            <Array as="points">
              <mxPoint x="429" y="760" />
            </Array>
          </mxGeometry>
        </mxCell>
      </root>
    </mxGraphModel>
  </diagram>
</mxfile>
